{
  "asset": {
    "version": "2.0",
    "generator": "THREE.GLTFExporter"
  },
  "scenes": [
    {
      "nodes": [
        0
      ]
    }
  ],
  "scene": 0,
  "nodes": [
    {
      "children": [
        7
      ],
      "matrix": [
        0.01,
        0,
        0,
        0,
        0,
        0.01,
        0,
        0,
        0,
        0,
        0.01,
        0,
        0,
        0,
        0,
        1
      ]
    },
    {
      "matrix": [
        -0.3193721588190087,
        5.122621932748841e-16,
        -0.9476293706778437,
        0,
        1.2543038763023236e-16,
        1.0000000000000004,
        3.866628504825358e-16,
        0,
        0.9476293706778436,
        -1.3545544571357916e-16,
        -0.3193721588190089,
        0,
        1.2796251151792113,
        -0.7103726107463154,
        -4.9488659566312565,
        1
      ],
      "name": "Pyramid 3",
      "mesh": 0
    },
    {
      "matrix": [
        -0.9517835861911124,
        -1.549977508156738e-17,
        -0.3067702805963857,
        0,
        1.1655987223099351e-16,
        1.0000000000000002,
        1.3227762851969643e-16,
        0,
        0.3067702805963856,
        1.1481278395683379e-16,
        -0.9517835861911127,
        0,
        -0.401141427861596,
        0.48253193959408586,
        -0.4602270469102705,
        1
      ],
      "name": "Pyramid 2",
      "mesh": 1
    },
    {
      "matrix": [
        1,
        0,
        0,
        0,
        0,
        1,
        0,
        0,
        0,
        0,
        1,
        0,
        -0.40114142786159235,
        0.5592340426183,
        7.539772953089731,
        1
      ],
      "name": "Pyramid",
      "mesh": 2
    },
    {
      "matrix": [
        1,
        0,
        0,
        0,
        0,
        1,
        0,
        0,
        0,
        0,
        1,
        0,
        25.673449949263148,
        26.20138448436319,
        -3.122719138840827,
        1
      ],
      "name": "mountain",
      "children": [
        1,
        2,
        3
      ]
    },
    {
      "matrix": [
        0.15001496607585962,
        -1.3067533916055751e-8,
        0.9886837259474127,
        0,
        0.4751479928851877,
        0.876947361381498,
        -0.07209514701563541,
        0,
        -0.8670235837683059,
        0.4805864390159467,
        0.13155523487697263,
        0,
        -862.8850972324345,
        514.7179029260737,
        134.8156322604607,
        1
      ],
      "camera": 0
    },
    {
      "matrix": [
        1,
        0,
        0,
        0,
        0,
        1,
        0,
        0,
        0,
        0,
        1,
        0,
        0,
        1,
        0,
        1
      ],
      "name": "Default Ambient Light"
    },
    {
      "name": "Scene 1",
      "children": [
        4,
        5,
        6
      ]
    }
  ],
  "bufferViews": [
    {
      "buffer": 0,
      "byteOffset": 0,
      "byteLength": 86400,
      "target": 34962,
      "byteStride": 12
    },
    {
      "buffer": 0,
      "byteOffset": 86400,
      "byteLength": 86400,
      "target": 34962,
      "byteStride": 12
    },
    {
      "buffer": 0,
      "byteOffset": 172800,
      "byteLength": 43200,
      "target": 34963
    },
    {
      "buffer": 0,
      "byteOffset": 216000,
      "byteLength": 86400,
      "target": 34962,
      "byteStride": 12
    },
    {
      "buffer": 0,
      "byteOffset": 302400,
      "byteLength": 86400,
      "target": 34962,
      "byteStride": 12
    },
    {
      "buffer": 0,
      "byteOffset": 388800,
      "byteLength": 43200,
      "target": 34963
    },
    {
      "buffer": 0,
      "byteOffset": 432000,
      "byteLength": 86400,
      "target": 34962,
      "byteStride": 12
    },
    {
      "buffer": 0,
      "byteOffset": 518400,
      "byteLength": 86400,
      "target": 34962,
      "byteStride": 12
    },
    {
      "buffer": 0,
      "byteOffset": 604800,
      "byteLength": 43200,
      "target": 34963
    }
  ],
  "buffers": [
    {
      "byteLength": 648000,
      "uri": "data:application/octet-stream;base64,"
    }
  ],
  "accessors": [
    {
      "bufferView": 0,
      "componentType": 5126,
      "count": 7200,
      "max": [
        5.66656494140625,
        2.844618082046509,
        5.042044162750244
      ],
      "min": [
        -6.3843889236450195,
        -3.3549368381500244,
        -4.954015731811523
      ],
      "type": "VEC3"
    },
    {
      "bufferView": 1,
      "componentType": 5126,
      "count": 7200,
      "max": [
        0.999660849571228,
        1,
        0.999805748462677
      ],
      "min": [
        -0.9996607303619385,
        -1,
        -0.999805748462677
      ],
      "type": "VEC3"
    },
    {
      "bufferView": 2,
      "componentType": 5125,
      "count": 10800,
      "max": [
        7199
      ],
      "min": [
        0
      ],
      "type": "SCALAR"
    },
    {
      "bufferView": 3,
      "componentType": 5126,
      "count": 7200,
      "max": [
        6.537919998168945,
        3.506075859069824,
        4.886240482330322
      ],
      "min": [
        -7.241239070892334,
        -4.135060787200928,
        -4.800933361053467
      ],
      "type": "VEC3"
    },
    {
      "bufferView": 4,
      "componentType": 5126,
      "count": 7200,
      "max": [
        0.9997121691703796,
        0.9999999403953552,
        0.9998798370361328
      ],
      "min": [
        -0.9997121095657349,
        -0.9999999403953552,
        -0.9998798370361328
      ],
      "type": "VEC3"
    },
    {
      "bufferView": 5,
      "componentType": 5125,
      "count": 10800,
      "max": [
        7199
      ],
      "min": [
        0
      ],
      "type": "SCALAR"
    },
    {
      "bufferView": 6,
      "componentType": 5126,
      "count": 7200,
      "max": [
        6.42707633972168,
        3.506075859069824,
        4.389184951782227
      ],
      "min": [
        -7.241239070892334,
        -4.135060787200928,
        -4.800933361053467
      ],
      "type": "VEC3"
    },
    {
      "bufferView": 7,
      "componentType": 5126,
      "count": 7200,
      "max": [
        0.9997121691703796,
        0.9999999403953552,
        0.9998798370361328
      ],
      "min": [
        -0.9997121095657349,
        -0.9999999403953552,
        -0.9998798370361328
      ],
      "type": "VEC3"
    },
    {
      "bufferView": 8,
      "componentType": 5125,
      "count": 10800,
      "max": [
        7199
      ],
      "min": [
        0
      ],
      "type": "SCALAR"
    }
  ],
  "meshes": [
    {
      "primitives": [
        {
          "mode": 4,
          "attributes": {
            "POSITION": 0,
            "NORMAL": 1
          },
          "extras": {
            "type": "SubdivGeometry",
            "parameters": {
              "width": 12.050953088743062,
              "height": 6.199554395694576,
              "depth": 9.996060815205578
            }
          },
          "indices": 2
        }
      ]
    },
    {
      "primitives": [
        {
          "mode": 4,
          "attributes": {
            "POSITION": 3,
            "NORMAL": 4
          },
          "extras": {
            "type": "SubdivGeometry",
            "parameters": {
              "width": 13.77915906906128,
              "height": 7.641136646270752,
              "depth": 9.687173843383789
            }
          },
          "indices": 5
        }
      ]
    },
    {
      "primitives": [
        {
          "mode": 4,
          "attributes": {
            "POSITION": 6,
            "NORMAL": 7
          },
          "extras": {
            "type": "SubdivGeometry",
            "parameters": {
              "width": 13.668315410614014,
              "height": 7.641136646270752,
              "depth": 9.190118312835693
            }
          },
          "indices": 8
        }
      ]
    }
  ],
  "cameras": [
    {
      "type": "orthographic",
      "orthographic": {
        "xmag": 0.7341674608290361,
        "ymag": 0.39143999688751924,
        "zfar": 100000,
        "znear": 0
      }
    }
  ]
}