{
  "asset": {
    "version": "2.0",
    "generator": "THREE.GLTFExporter"
  },
  "scenes": [
    {
      "nodes": [
        0
      ]
    }
  ],
  "scene": 0,
  "nodes": [
    {
      "children": [
        16
      ],
      "matrix": [
        0.01,
        0,
        0,
        0,
        0,
        0.01,
        0,
        0,
        0,
        0,
        0.01,
        0,
        0,
        0,
        0,
        1
      ]
    },
    {
      "matrix": [
        0.7732822106280944,
        0,
        0,
        0,
        0,
        1.7170314295447402e-16,
        -0.7732822106281124,
        0,
        0,
        0.7732822106281124,
        1.7170314295447402e-16,
        0,
        0.9062925186384406,
        259.81461074426403,
        -1.0264398447558154,
        1
      ],
      "name": "Cube 197",
      "mesh": 0
    },
    {
      "matrix": [
        1,
        0,
        0,
        0,
        0,
        2.220446049250545e-16,
        -1.000000000000105,
        0,
        0,
        1.000000000000105,
        2.220446049250545e-16,
        0,
        0.6260467070287632,
        61.76745003224016,
        2.4063477516174316,
        1
      ],
      "name": "Cube 198",
      "mesh": 1
    },
    {
      "matrix": [
        1,
        0,
        0,
        0,
        0,
        2.220446049250544e-16,
        -1.0000000000001046,
        0,
        0,
        1.0000000000001046,
        2.220446049250544e-16,
        0,
        0.6260467070287631,
        -61.76745003223948,
        2.406347751617431,
        1
      ],
      "name": "Cube 198",
      "mesh": 1
    },
    {
      "matrix": [
        1,
        0,
        0,
        0,
        0,
        1,
        0,
        0,
        0,
        0,
        1,
        0,
        0,
        61.76745003223982,
        0,
        1
      ],
      "name": "Merged Geometry 11",
      "mesh": 2
    },
    {
      "matrix": [
        1,
        0,
        0,
        0,
        0,
        1,
        0,
        0,
        0,
        0,
        1,
        0,
        0,
        -61.76745003223982,
        0,
        1
      ],
      "name": "Merged Geometry 11",
      "mesh": 3
    },
    {
      "matrix": [
        0.7732822106280944,
        0,
        0,
        0,
        0,
        0.7732822106280944,
        0,
        0,
        0,
        0,
        0.7732822106280944,
        0,
        66.76433731750559,
        104.46690996814331,
        208.5262953896445,
        1
      ],
      "name": "window",
      "children": [
        2,
        3,
        4,
        5
      ]
    },
    {
      "matrix": [
        1,
        0,
        0,
        0,
        0,
        2.220446049250544e-16,
        -1.0000000000001046,
        0,
        0,
        1.0000000000001046,
        2.220446049250544e-16,
        0,
        0.6260467070287631,
        61.76745003224016,
        2.406347751617431,
        1
      ],
      "name": "Cube 197",
      "mesh": 4
    },
    {
      "matrix": [
        1,
        0,
        0,
        0,
        0,
        2.220446049250543e-16,
        -1.0000000000001041,
        0,
        0,
        1.0000000000001041,
        2.220446049250543e-16,
        0,
        0.6260467070287632,
        -61.76745003223949,
        2.406347751617432,
        1
      ],
      "name": "Cube 20",
      "mesh": 5
    },
    {
      "matrix": [
        1,
        0,
        0,
        0,
        0,
        1,
        0,
        0,
        0,
        0,
        1,
        0,
        0,
        61.76745003223982,
        0,
        1
      ],
      "name": "Merged Geometry 10",
      "mesh": 6
    },
    {
      "matrix": [
        1,
        0,
        0,
        0,
        0,
        1,
        0,
        0,
        0,
        0,
        1,
        0,
        0,
        -61.76745003223982,
        0,
        1
      ],
      "name": "Merged Geometry 9",
      "mesh": 7
    },
    {
      "matrix": [
        0.7732822106280944,
        0,
        0,
        0,
        0,
        0.7732822106280944,
        0,
        0,
        0,
        0,
        0.7732822106280944,
        0,
        -64.31424908033631,
        104.46690996814331,
        208.5262953896445,
        1
      ],
      "name": "window",
      "children": [
        7,
        8,
        9,
        10
      ]
    },
    {
      "matrix": [
        0.7732822106280947,
        0,
        0,
        0,
        0,
        0.7732822106281189,
        0,
        0,
        0,
        0,
        0.7732822106281252,
        0,
        9.094947017729282e-13,
        111.30668430104728,
        -26.108967625461357,
        1
      ],
      "name": "Cube 15",
      "mesh": 8
    },
    {
      "name": "schoolbuilding",
      "children": [
        1,
        6,
        11,
        12
      ]
    },
    {
      "matrix": [
        0.8675079689152344,
        -6.938893903907228e-18,
        -0.4974232844053087,
        0,
        -0.08834601827244548,
        0.9841014371395628,
        -0.15407576861807923,
        0,
        0.48951496904994574,
        0.17760732366613477,
        0.8537158389395054,
        0,
        530.0303119340554,
        211.98397823447002,
        853.7158389395056,
        1
      ],
      "camera": 0
    },
    {
      "matrix": [
        1,
        0,
        0,
        0,
        0,
        1,
        0,
        0,
        0,
        0,
        1,
        0,
        0,
        1,
        0,
        1
      ],
      "name": "Default Ambient Light"
    },
    {
      "name": "Scene 1",
      "children": [
        13,
        14,
        15
      ]
    }
  ],
  "bufferViews": [
    {
      "buffer": 0,
      "byteOffset": 0,
      "byteLength": 480,
      "target": 34962,
      "byteStride": 12
    },
    {
      "buffer": 0,
      "byteOffset": 480,
      "byteLength": 480,
      "target": 34962,
      "byteStride": 12
    },
    {
      "buffer": 0,
      "byteOffset": 960,
      "byteLength": 240,
      "target": 34963
    },
    {
      "buffer": 0,
      "byteOffset": 1200,
      "byteLength": 48,
      "target": 34962,
      "byteStride": 12
    },
    {
      "buffer": 0,
      "byteOffset": 1248,
      "byteLength": 48,
      "target": 34962,
      "byteStride": 12
    },
    {
      "buffer": 0,
      "byteOffset": 1296,
      "byteLength": 24,
      "target": 34963
    },
    {
      "buffer": 0,
      "byteOffset": 1320,
      "byteLength": 1728,
      "target": 34962,
      "byteStride": 12
    },
    {
      "buffer": 0,
      "byteOffset": 3048,
      "byteLength": 1728,
      "target": 34962,
      "byteStride": 12
    },
    {
      "buffer": 0,
      "byteOffset": 4776,
      "byteLength": 864,
      "target": 34963
    },
    {
      "buffer": 0,
      "byteOffset": 5640,
      "byteLength": 1728,
      "target": 34962,
      "byteStride": 12
    },
    {
      "buffer": 0,
      "byteOffset": 7368,
      "byteLength": 1728,
      "target": 34962,
      "byteStride": 12
    },
    {
      "buffer": 0,
      "byteOffset": 9096,
      "byteLength": 864,
      "target": 34963
    },
    {
      "buffer": 0,
      "byteOffset": 9960,
      "byteLength": 48,
      "target": 34962,
      "byteStride": 12
    },
    {
      "buffer": 0,
      "byteOffset": 10008,
      "byteLength": 48,
      "target": 34962,
      "byteStride": 12
    },
    {
      "buffer": 0,
      "byteOffset": 10056,
      "byteLength": 24,
      "target": 34963
    },
    {
      "buffer": 0,
      "byteOffset": 10080,
      "byteLength": 48,
      "target": 34962,
      "byteStride": 12
    },
    {
      "buffer": 0,
      "byteOffset": 10128,
      "byteLength": 48,
      "target": 34962,
      "byteStride": 12
    },
    {
      "buffer": 0,
      "byteOffset": 10176,
      "byteLength": 24,
      "target": 34963
    },
    {
      "buffer": 0,
      "byteOffset": 10200,
      "byteLength": 1728,
      "target": 34962,
      "byteStride": 12
    },
    {
      "buffer": 0,
      "byteOffset": 11928,
      "byteLength": 1728,
      "target": 34962,
      "byteStride": 12
    },
    {
      "buffer": 0,
      "byteOffset": 13656,
      "byteLength": 864,
      "target": 34963
    },
    {
      "buffer": 0,
      "byteOffset": 14520,
      "byteLength": 1728,
      "target": 34962,
      "byteStride": 12
    },
    {
      "buffer": 0,
      "byteOffset": 16248,
      "byteLength": 1728,
      "target": 34962,
      "byteStride": 12
    },
    {
      "buffer": 0,
      "byteOffset": 17976,
      "byteLength": 864,
      "target": 34963
    },
    {
      "buffer": 0,
      "byteOffset": 18840,
      "byteLength": 5160,
      "target": 34962,
      "byteStride": 12
    },
    {
      "buffer": 0,
      "byteOffset": 24000,
      "byteLength": 5160,
      "target": 34962,
      "byteStride": 12
    },
    {
      "buffer": 0,
      "byteOffset": 29160,
      "byteLength": 2640,
      "target": 34963
    }
  ],
  "buffers": [
    {
      "byteLength": 31800,
      "uri": "data:application/octet-stream;base64,"
    }
  ],
  "accessors": [
    {
      "bufferView": 0,
      "componentType": 5126,
      "count": 40,
      "max": [
        176.55177307128906,
        269.4759521484375,
        62.42856216430664
      ],
      "min": [
        -176.55177307128906,
        -269.4759521484375,
        -71.23290252685547
      ],
      "type": "VEC3"
    },
    {
      "bufferView": 1,
      "componentType": 5126,
      "count": 40,
      "max": [
        1,
        1,
        1
      ],
      "min": [
        -1,
        -1,
        -1
      ],
      "type": "VEC3"
    },
    {
      "bufferView": 2,
      "componentType": 5125,
      "count": 60,
      "max": [
        39
      ],
      "min": [
        0
      ],
      "type": "SCALAR"
    },
    {
      "bufferView": 3,
      "componentType": 5126,
      "count": 4,
      "max": [
        37.94990158081055,
        2.4063477516174316,
        25.685604095458984
      ],
      "min": [
        -37.94990158081055,
        2.4063477516174316,
        -25.685604095458984
      ],
      "type": "VEC3"
    },
    {
      "bufferView": 4,
      "componentType": 5126,
      "count": 4,
      "max": [
        0,
        -1,
        0
      ],
      "min": [
        0,
        -1,
        0
      ],
      "type": "VEC3"
    },
    {
      "bufferView": 5,
      "componentType": 5125,
      "count": 6,
      "max": [
        3
      ],
      "min": [
        0
      ],
      "type": "SCALAR"
    },
    {
      "bufferView": 6,
      "componentType": 5126,
      "count": 144,
      "max": [
        43.18880081176758,
        31.441509246826172,
        5.638537406921387
      ],
      "min": [
        -43.18880081176758,
        -31.441509246826172,
        -5.638537406921387
      ],
      "type": "VEC3"
    },
    {
      "bufferView": 7,
      "componentType": 5126,
      "count": 144,
      "max": [
        1,
        0.9919289946556091,
        1
      ],
      "min": [
        -1,
        -0.9919289946556091,
        -1
      ],
      "type": "VEC3"
    },
    {
      "bufferView": 8,
      "componentType": 5125,
      "count": 216,
      "max": [
        143
      ],
      "min": [
        0
      ],
      "type": "SCALAR"
    },
    {
      "bufferView": 9,
      "componentType": 5126,
      "count": 144,
      "max": [
        43.18880081176758,
        31.441509246826172,
        5.638537406921387
      ],
      "min": [
        -43.18880081176758,
        -31.441509246826172,
        -5.638537406921387
      ],
      "type": "VEC3"
    },
    {
      "bufferView": 10,
      "componentType": 5126,
      "count": 144,
      "max": [
        1,
        0.9919289946556091,
        1
      ],
      "min": [
        -1,
        -0.9919289946556091,
        -1
      ],
      "type": "VEC3"
    },
    {
      "bufferView": 11,
      "componentType": 5125,
      "count": 216,
      "max": [
        143
      ],
      "min": [
        0
      ],
      "type": "SCALAR"
    },
    {
      "bufferView": 12,
      "componentType": 5126,
      "count": 4,
      "max": [
        37.94990158081055,
        2.4063477516174316,
        25.685604095458984
      ],
      "min": [
        -37.94990158081055,
        2.4063477516174316,
        -25.685604095458984
      ],
      "type": "VEC3"
    },
    {
      "bufferView": 13,
      "componentType": 5126,
      "count": 4,
      "max": [
        0,
        -1,
        0
      ],
      "min": [
        0,
        -1,
        0
      ],
      "type": "VEC3"
    },
    {
      "bufferView": 14,
      "componentType": 5125,
      "count": 6,
      "max": [
        3
      ],
      "min": [
        0
      ],
      "type": "SCALAR"
    },
    {
      "bufferView": 15,
      "componentType": 5126,
      "count": 4,
      "max": [
        37.94990158081055,
        2.4063477516174316,
        25.685604095458984
      ],
      "min": [
        -37.94990158081055,
        2.4063477516174316,
        -25.685604095458984
      ],
      "type": "VEC3"
    },
    {
      "bufferView": 16,
      "componentType": 5126,
      "count": 4,
      "max": [
        0,
        -1,
        0
      ],
      "min": [
        0,
        -1,
        0
      ],
      "type": "VEC3"
    },
    {
      "bufferView": 17,
      "componentType": 5125,
      "count": 6,
      "max": [
        3
      ],
      "min": [
        0
      ],
      "type": "SCALAR"
    },
    {
      "bufferView": 18,
      "componentType": 5126,
      "count": 144,
      "max": [
        43.18880081176758,
        31.441509246826172,
        5.638537406921387
      ],
      "min": [
        -43.18880081176758,
        -31.441509246826172,
        -5.638537406921387
      ],
      "type": "VEC3"
    },
    {
      "bufferView": 19,
      "componentType": 5126,
      "count": 144,
      "max": [
        1,
        0.9919289946556091,
        1
      ],
      "min": [
        -1,
        -0.9919289946556091,
        -1
      ],
      "type": "VEC3"
    },
    {
      "bufferView": 20,
      "componentType": 5125,
      "count": 216,
      "max": [
        143
      ],
      "min": [
        0
      ],
      "type": "SCALAR"
    },
    {
      "bufferView": 21,
      "componentType": 5126,
      "count": 144,
      "max": [
        43.18880081176758,
        31.441509246826172,
        5.638537406921387
      ],
      "min": [
        -43.18880081176758,
        -31.441509246826172,
        -5.638537406921387
      ],
      "type": "VEC3"
    },
    {
      "bufferView": 22,
      "componentType": 5126,
      "count": 144,
      "max": [
        1,
        0.9919289946556091,
        1
      ],
      "min": [
        -1,
        -0.9919289946556091,
        -1
      ],
      "type": "VEC3"
    },
    {
      "bufferView": 23,
      "componentType": 5125,
      "count": 216,
      "max": [
        143
      ],
      "min": [
        0
      ],
      "type": "SCALAR"
    },
    {
      "bufferView": 24,
      "componentType": 5126,
      "count": 430,
      "max": [
        183.1570587158203,
        120,
        312.754150390625
      ],
      "min": [
        -183.1570587158203,
        -145.83445739746094,
        -250.9000701904297
      ],
      "type": "VEC3"
    },
    {
      "bufferView": 25,
      "componentType": 5126,
      "count": 430,
      "max": [
        1,
        1,
        1
      ],
      "min": [
        -1,
        -1,
        -1
      ],
      "type": "VEC3"
    },
    {
      "bufferView": 26,
      "componentType": 5125,
      "count": 660,
      "max": [
        429
      ],
      "min": [
        0
      ],
      "type": "SCALAR"
    }
  ],
  "meshes": [
    {
      "primitives": [
        {
          "mode": 4,
          "attributes": {
            "POSITION": 0,
            "NORMAL": 1
          },
          "extras": {
            "type": "SubdivGeometry",
            "parameters": {
              "width": 353.1035461425781,
              "height": 538.951904296875,
              "depth": 133.6614646911621
            }
          },
          "indices": 2
        }
      ]
    },
    {
      "primitives": [
        {
          "mode": 4,
          "attributes": {
            "POSITION": 3,
            "NORMAL": 4
          },
          "extras": {
            "type": "SubdivGeometry",
            "parameters": {
              "width": 75.8998031616211,
              "height": 0,
              "depth": 51.37120819091797
            }
          },
          "indices": 5
        }
      ]
    },
    {
      "primitives": [
        {
          "mode": 4,
          "attributes": {
            "POSITION": 6,
            "NORMAL": 7
          },
          "extras": {
            "type": "SubdivGeometry",
            "parameters": {
              "width": 86.37760162353516,
              "height": 62.883018493652344,
              "depth": 11.277074813842773
            }
          },
          "indices": 8
        }
      ]
    },
    {
      "primitives": [
        {
          "mode": 4,
          "attributes": {
            "POSITION": 9,
            "NORMAL": 10
          },
          "extras": {
            "type": "SubdivGeometry",
            "parameters": {
              "width": 86.37760162353516,
              "height": 62.883018493652344,
              "depth": 11.277074813842773
            }
          },
          "indices": 11
        }
      ]
    },
    {
      "primitives": [
        {
          "mode": 4,
          "attributes": {
            "POSITION": 12,
            "NORMAL": 13
          },
          "extras": {
            "type": "SubdivGeometry",
            "parameters": {
              "width": 75.8998031616211,
              "height": 0,
              "depth": 51.37120819091797
            }
          },
          "indices": 14
        }
      ]
    },
    {
      "primitives": [
        {
          "mode": 4,
          "attributes": {
            "POSITION": 15,
            "NORMAL": 16
          },
          "extras": {
            "type": "SubdivGeometry",
            "parameters": {
              "width": 75.8998031616211,
              "height": 0,
              "depth": 51.37120819091797
            }
          },
          "indices": 17
        }
      ]
    },
    {
      "primitives": [
        {
          "mode": 4,
          "attributes": {
            "POSITION": 18,
            "NORMAL": 19
          },
          "extras": {
            "type": "SubdivGeometry",
            "parameters": {
              "width": 86.37760162353516,
              "height": 62.883018493652344,
              "depth": 11.277074813842773
            }
          },
          "indices": 20
        }
      ]
    },
    {
      "primitives": [
        {
          "mode": 4,
          "attributes": {
            "POSITION": 21,
            "NORMAL": 22
          },
          "extras": {
            "type": "SubdivGeometry",
            "parameters": {
              "width": 86.37760162353516,
              "height": 62.883018493652344,
              "depth": 11.277074813842773
            }
          },
          "indices": 23
        }
      ]
    },
    {
      "primitives": [
        {
          "mode": 4,
          "attributes": {
            "POSITION": 24,
            "NORMAL": 25
          },
          "extras": {
            "type": "SubdivGeometry",
            "parameters": {
              "width": 366.3141174316406,
              "height": 265.83445739746094,
              "depth": 563.6542205810547
            }
          },
          "indices": 26
        }
      ]
    }
  ],
  "cameras": [
    {
      "type": "orthographic",
      "orthographic": {
        "xmag": 7.771579407770045,
        "ymag": 4.143614613147536,
        "zfar": 100000,
        "znear": 0
      }
    }
  ]
}