{
  "asset": {
    "version": "2.0",
    "generator": "THREE.GLTFExporter"
  },
  "scenes": [
    {
      "nodes": [
        0
      ]
    }
  ],
  "scene": 0,
  "nodes": [
    {
      "children": [
        4
      ],
      "matrix": [
        0.01,
        0,
        0,
        0,
        0,
        0.01,
        0,
        0,
        0,
        0,
        0.01,
        0,
        0,
        0,
        0,
        1
      ]
    },
    {
      "matrix": [
        2.220446049250313e-16,
        -2.220446049250313e-16,
        1,
        0,
        1,
        0,
        -2.220446049250313e-16,
        0,
        0,
        1,
        2.220446049250313e-16,
        0,
        -74.99999999999999,
        0.9999999999999946,
        -154.5,
        1
      ],
      "name": "iseland",
      "mesh": 0
    },
    {
      "matrix": [
        0.5789620826272898,
        -2.7755575615628914e-17,
        -0.8153544670141148,
        0,
        -0.3846380800593825,
        0.8817358869264091,
        -0.273121535354374,
        0,
        0.7189272941321001,
        0.47174338967928164,
        0.5104916454221343,
        0,
        885.1120905268831,
        516.3559928326443,
        293.9487417634117,
        1
      ],
      "camera": 0
    },
    {
      "matrix": [
        1,
        0,
        0,
        0,
        0,
        1,
        0,
        0,
        0,
        0,
        1,
        0,
        0,
        1,
        0,
        1
      ],
      "name": "Default Ambient Light"
    },
    {
      "name": "Scene 1",
      "children": [
        1,
        2,
        3
      ]
    }
  ],
  "bufferViews": [
    {
      "buffer": 0,
      "byteOffset": 0,
      "byteLength": 7872,
      "target": 34962,
      "byteStride": 12
    },
    {
      "buffer": 0,
      "byteOffset": 7872,
      "byteLength": 7872,
      "target": 34962,
      "byteStride": 12
    },
    {
      "buffer": 0,
      "byteOffset": 15744,
      "byteLength": 5248,
      "target": 34962,
      "byteStride": 8
    },
    {
      "buffer": 0,
      "byteOffset": 20992,
      "byteLength": 7824,
      "target": 34963
    }
  ],
  "buffers": [
    {
      "byteLength": 28816,
      "uri": "data:application/octet-stream;base64,"
    }
  ],
  "accessors": [
    {
      "bufferView": 0,
      "componentType": 5126,
      "count": 656,
      "max": [
        220,
        220,
        4
      ],
      "min": [
        -220,
        -220,
        0
      ],
      "type": "VEC3"
    },
    {
      "bufferView": 1,
      "componentType": 5126,
      "count": 656,
      "max": [
        1,
        1,
        1
      ],
      "min": [
        -1,
        -1,
        -1
      ],
      "type": "VEC3"
    },
    {
      "bufferView": 2,
      "componentType": 5126,
      "count": 656,
      "max": [
        1,
        1
      ],
      "min": [
        0,
        0
      ],
      "type": "VEC2"
    },
    {
      "bufferView": 3,
      "componentType": 5125,
      "count": 1956,
      "max": [
        655
      ],
      "min": [
        0
      ],
      "type": "SCALAR"
    }
  ],
  "meshes": [
    {
      "primitives": [
        {
          "mode": 4,
          "attributes": {
            "POSITION": 0,
            "NORMAL": 1,
            "TEXCOORD_0": 2
          },
          "extras": {
            "shape": {
              "points": [
                -220,
                220,
                -220,
                220,
                -220,
                220,
                23,
                220,
                220,
                220,
                220,
                220,
                220,
                23,
                220,
                -220,
                220,
                -220,
                220,
                -220,
                23,
                -220,
                -220,
                -220,
                -220,
                -220,
                -220,
                23
              ],
              "shapeHoles": [],
              "isClosed": true,
              "roundness": 23
            },
            "parameters": {
              "width": 440,
              "depth": 4,
              "cornerRadius": [
                23,
                23,
                23,
                23
              ],
              "cornerType": 1,
              "extrudeBevelSize": 0,
              "extrudeBevelSegments": 1,
              "height": 440,
              "type": "RectangleGeometry"
            },
            "ui": {
              "enabledIndieCorners": false
            },
            "type": "RectangleGeometry"
          },
          "indices": 3
        }
      ]
    }
  ],
  "cameras": [
    {
      "type": "orthographic",
      "orthographic": {
        "xmag": 2.2692158888460714,
        "ymag": 1.2098899881288296,
        "zfar": 100000,
        "znear": 0
      }
    }
  ]
}